<?xml version="1.0" encoding="UTF-8" standalone="no"?>
<!-- Created with Inkscape (http://www.inkscape.org/) -->

<svg
   xmlns:dc="http://purl.org/dc/elements/1.1/"
   xmlns:cc="http://creativecommons.org/ns#"
   xmlns:rdf="http://www.w3.org/1999/02/22-rdf-syntax-ns#"
   xmlns:svg="http://www.w3.org/2000/svg"
   xmlns="http://www.w3.org/2000/svg"
   xmlns:sodipodi="http://sodipodi.sourceforge.net/DTD/sodipodi-0.dtd"
   xmlns:inkscape="http://www.inkscape.org/namespaces/inkscape"
   version="1.1"
   id="svg10"
   width="255.05882"
   height="208"
   viewBox="0 0 255.05882 208"
   sodipodi:docname="logo.svg"
   inkscape:version="0.92.3 (2405546, 2018-03-11)">
  <metadata
     id="metadata16">
    <rdf:RDF>
      <cc:Work
         rdf:about="">
        <dc:format>image/svg+xml</dc:format>
        <dc:type
           rdf:resource="http://purl.org/dc/dcmitype/StillImage" />
        <dc:title></dc:title>
      </cc:Work>
    </rdf:RDF>
  </metadata>
  <defs
     id="defs14" />
  <sodipodi:namedview
     pagecolor="#ffffff"
     bordercolor="#666666"
     borderopacity="1"
     objecttolerance="10"
     gridtolerance="10"
     guidetolerance="10"
     inkscape:pageopacity="0"
     inkscape:pageshadow="2"
     inkscape:window-width="1600"
     inkscape:window-height="835"
     id="namedview12"
     showgrid="false"
     inkscape:zoom="2.9951923"
     inkscape:cx="73.416601"
     inkscape:cy="114.84802"
     inkscape:window-x="0"
     inkscape:window-y="0"
     inkscape:window-maximized="1"
     inkscape:current-layer="g20" />
  <g
     id="g20"
     transform="translate(176.2825,22.035313)">
    <path
       style="fill:#fafafb;stroke-width:0.63922542"
       d="M -131.87801,80.796148 V 9.3483151 h 85.628929 85.628928 V 80.796148 152.24398 H -46.249081 -131.87801 Z M 36.696877,80.957792 36.857673,10.641489 H 23.273538 9.689408 L 9.5258709,81.131636 9.3623281,151.62178 22.949203,151.44795 36.536085,151.2741 Z M -72.790888,148.36718 c 0,-1.47885 -0.302438,-1.65239 -3.618317,-2.07618 -3.683072,-0.47072 -6.808819,-2.00465 -6.808819,-3.34135 0,-0.407 -0.570257,-1.10436 -1.267239,-1.54973 -1.25516,-0.80201 -1.2657,-1.36821 -1.105901,-59.479864 l 0.161322,-58.670127 6.923478,-0.184871 c 6.141301,-0.163985 7.120082,-0.03615 8.663693,1.131527 0.957118,0.724019 2.301967,1.316398 2.988559,1.316398 0.686587,0 1.963701,0.278278 2.838024,0.618397 1.930067,0.750806 7.971813,6.687983 7.971813,7.833832 0,0.4518 0.425925,1.302996 0.946496,1.891546 2.491254,2.816569 3.572392,17.097934 1.882656,24.86893 -0.575676,2.647481 -1.447735,5.154159 -1.937909,5.570394 -0.490189,0.416236 -0.891243,1.169394 -0.891243,1.673684 0,1.842882 -5.10518,7.909589 -6.69549,7.956551 -0.380595,0.01124 -1.206707,0.602358 -1.835803,1.313604 -0.629097,0.711245 -1.790364,1.293171 -2.580595,1.293171 -0.790232,0 -1.933049,0.50919 -2.539593,1.131529 -0.830203,0.851822 -2.520643,1.211446 -6.838577,1.454822 -5.092883,0.287054 -5.735776,0.460337 -5.735776,1.545993 0,0.672488 0.556751,1.545383 1.237216,1.939761 0.680458,0.394386 1.624997,1.080765 2.098965,1.525295 0.473968,0.444521 1.241533,0.808232 1.705699,0.808232 1.066026,0 6.017211,5.994087 6.017211,7.284661 0,0.529434 0.426563,1.324838 0.947921,1.767549 0.521357,0.442708 0.947921,1.401052 0.947921,2.129659 0,0.728606 0.481616,1.869242 1.070255,2.534747 1.04548,1.18202 2.492819,4.58574 3.155302,7.4204 0.182027,0.77887 0.869815,1.91508 1.528416,2.52491 0.658598,0.60984 1.206499,1.57288 1.217549,2.14011 0.01107,0.56721 0.43762,1.59611 0.947919,2.28642 0.510304,0.69031 0.927829,1.73633 0.927829,2.32449 0,0.58817 0.568753,1.59601 1.263894,2.23969 0.695147,0.64366 1.272937,1.63439 1.283989,2.20161 0.01108,0.56721 0.437629,1.59612 0.947925,2.28642 0.510305,0.69032 0.927823,1.74579 0.927823,2.34553 0,0.59973 0.456192,1.47781 1.01376,1.95125 0.557562,0.47345 1.280715,1.45471 1.607003,2.18058 1.993928,4.4357 6.960979,10.12934 10.438243,11.96517 1.447527,0.76422 2.789395,1.80951 2.981926,2.32283 0.192529,0.51336 1.015566,0.93337 1.828966,0.93337 0.813409,0 2.030934,0.42719 2.705614,0.9493 0.67468,0.52212 2.226215,0.95856 3.447868,0.96989 1.22164,0.0114 3.293978,0.60888 4.605184,1.32792 2.187518,1.1996 3.358652,1.29284 14.209471,1.13153 l 11.8254543,-0.17583 -0.027389,-3.40174 c -0.022692,-2.8218 -0.2810602,-3.58355 -1.515457,-4.46818 -2.1735939,-1.55771 -7.6204263,-7.20831 -7.6204263,-7.9055 0,-0.32867 -0.900502,-1.37286 -2.001113,-2.32042 -1.100605,-0.94757 -2.550959,-2.79195 -3.223001,-4.09864 -0.672041,-1.30671 -2.046556,-3.26256 -3.054476,-4.34636 -1.007918,-1.0838 -1.832573,-2.29806 -1.832573,-2.69839 0,-0.40031 -0.731841,-1.61773 -1.626319,-2.70537 -0.894471,-1.08765 -2.245264,-3.08818 -3.001753,-4.44558 -2.150535,-3.85884 -5.327477,-8.76948 -6.4016,-9.89502 -0.537532,-0.56328 -0.977341,-1.22972 -0.977341,-1.481 0,-1.75983 -8.044959,-10.213013 -11.158495,-11.724712 -1.161787,-0.564094 -2.112371,-1.310133 -2.112371,-1.657878 0,-0.794466 2.75654,-1.893416 4.749349,-1.893416 0.829031,0 1.734736,-0.394495 2.012688,-0.876658 0.277951,-0.482156 1.500678,-1.355909 2.717181,-1.94165 4.147929,-1.997227 12.63895,-12.006966 12.63895,-14.899575 0,-0.457989 0.568754,-1.359347 1.263901,-2.003013 0.695139,-0.64367 1.263894,-1.96257 1.263894,-2.930891 0,-0.96832 0.426562,-2.805145 0.947918,-4.081833 1.287663,-3.153193 1.242871,-13.091368 -0.08496,-18.850746 -1.240286,-5.379662 -1.152274,-5.140256 -3.089915,-8.405628 -0.844093,-1.42249 -1.815552,-3.232259 -2.158795,-4.021708 -1.091653,-2.510741 -9.12023,-9.233319 -11.027092,-9.233319 -0.452049,0 -1.336624,-0.581928 -1.965722,-1.293174 -0.629096,-0.711246 -1.633758,-1.293174 -2.232584,-1.293174 -0.59883,0 -2.109688,-0.436445 -3.357474,-0.96988 -1.247785,-0.533434 -3.059865,-0.971672 -4.026848,-0.973863 -0.966987,-0.0022 -2.611286,-0.511378 -3.654,-1.131526 -1.736571,-1.032819 -5.121048,-1.143115 -40.286666,-1.312898 l -38.390835,-0.185355 v 2.153386 c 0,2.101459 0.09,2.173817 3.7329,3.00071 5.13056,1.164576 8.54348,4.461117 9.12682,8.815567 0.22615,1.688222 0.41118,26.702742 0.41118,55.587815 0,50.600449 -0.27265,59.130619 -1.90817,59.699509 -0.34079,0.11855 -0.61962,0.57616 -0.61962,1.01693 0,1.2755 -5.26076,3.61694 -8.12654,3.61694 -2.48795,0 -2.61657,0.0957 -2.61657,1.9463 v 1.94628 l 28.9116,-0.16817 28.911625,-0.16817 z"
       id="path36"
       inkscape:connector-curvature="0" />
    <path
       style="fill:#b0c8e1;stroke-width:0.63922542"
       d="M 9.5258709,81.119477 C 9.6548751,25.524203 9.8550396,10.641481 10.473789,10.641452 c 0.620744,-3e-5 0.750259,14.70289 0.620838,70.477948 -0.129003,55.59528 -0.329176,70.478 -0.947919,70.47803 -0.6207431,3e-5 -0.7502652,-14.7029 -0.6208371,-70.477953 z M 36.067699,80.796106 c -0.08996,-38.585078 0.04973,-70.154675 0.310396,-70.154654 0.26068,2e-5 0.473958,31.569633 0.473958,70.154696 0,38.585062 -0.139674,70.154652 -0.310388,70.154652 -0.170722,0 -0.384007,-31.56961 -0.473966,-70.154694 z M -74.370757,150.0501 c 0,-0.13976 0.441333,-0.42739 0.980743,-0.63918 0.562386,-0.2208 0.816047,-0.11241 0.594651,0.2541 -0.371115,0.6144 -1.575394,0.90876 -1.575394,0.38508 z m 46.773997,-1.07616 c -1.749799,-0.99814 -1.9279,-1.25607 -0.867313,-1.25607 0.734051,0 1.67449,0.41897 2.089865,0.93107 0.41537,0.51207 1.374406,1.05437 2.131206,1.2051 1.222633,0.24352 1.235129,0.27975 0.112098,0.32502 -0.695147,0.028 -2.254779,-0.5143 -3.465856,-1.20512 z m -46.14205,-1.90265 c -0.56957,-0.37662 -0.647515,-0.63074 -0.195283,-0.6367 0.413952,-0.006 0.928394,0.28108 1.143205,0.6367 0.484896,0.80275 0.266127,0.80275 -0.947922,0 z m 38.270047,-0.34387 c -1.577324,-1.22065 -0.992302,-1.21326 1.31244,0.0165 0.995551,0.53125 1.38353,0.95844 0.862174,0.94932 -0.521357,-0.009 -1.499934,-0.44377 -2.174614,-0.96589 z m -87.396917,-1.59591 c 3.05058,-1.67288 3.92437,-1.67117 1.24155,0.004 -1.138,0.70976 -2.41349,1.29061 -2.8344,1.29061 -0.42091,0 0.29587,-0.58194 1.59285,-1.29319 z m 40.911555,-0.0911 -1.579875,-1.35553 1.606213,0.97326 c 0.883422,0.5353 2.16311,1.118 2.843762,1.29491 1.207007,0.31369 1.206356,0.32313 -0.02634,0.38225 -0.695145,0.0334 -1.974833,-0.54936 -2.843754,-1.29489 z m 41.638828,-0.71713 -0.746136,-1.45481 1.513839,1.28627 c 0.832604,0.70746 1.632323,1.36213 1.777146,1.45482 0.144816,0.0927 -0.200641,0.16855 -0.767704,0.16855 -0.567054,0 -1.366764,-0.65468 -1.777145,-1.45483 z m 38.6185364,0.75938 c 0,-0.38248 -2.0125942,-2.7102 -4.4724314,-5.17269 -2.4598371,-2.46248 -4.28293,-4.47726 -4.051302,-4.47726 0.2316284,0 1.6043768,1.24348 3.0505605,2.76328 1.4461773,1.51981 3.2284602,3.19284 3.9606298,3.71788 1.23609,0.88638 2.67800311,3.86424 1.871102,3.86424 -0.1972105,0 -0.3585589,-0.31295 -0.3585589,-0.69545 z M -119.871,142.62435 c 0,-0.39917 0.26353,-0.72576 0.58562,-0.72576 0.32209,0 0.71566,-0.50918 0.8746,-1.13153 0.24384,-0.95465 0.30046,-0.96704 0.36232,-0.0792 0.0403,0.57878 -0.35326,1.41458 -0.87462,1.85728 -0.65492,0.55614 -0.94792,0.58061 -0.94792,0.0792 z m 35.118248,-0.44865 c -0.669233,-0.50068 -1.094892,-1.03503 -0.945928,-1.18745 0.148956,-0.15241 0.818371,0.13255 1.487589,0.63324 0.669226,0.50068 1.0949,1.03502 0.945943,1.18743 -0.148963,0.15241 -0.818386,-0.13253 -1.487604,-0.63322 z m 40.328765,-0.47603 c -2.419148,-1.74376 -7.504232,-7.46094 -7.049691,-7.92601 0.182471,-0.18669 1.517847,1.18473 2.967516,3.04762 1.449669,1.86287 3.688056,4.04925 4.974209,4.85859 1.286145,0.80934 2.054078,1.46384 1.706511,1.45443 -0.347574,-0.009 -1.516922,-0.65498 -2.598545,-1.43463 z M -117.65917,81.828309 c 0,-31.302519 0.19329,-56.415339 0.42953,-55.806265 0.54883,1.414929 0.53083,109.231086 -0.0187,111.226956 -0.22603,0.82113 -0.41097,-24.11818 -0.41097,-55.420691 z m 31.123418,53.999101 c -0.777334,-5.18518 -0.587408,-112.106134 0.200027,-112.604068 0.3707,-0.234409 0.726171,-0.324322 0.789942,-0.199807 0.06373,0.124518 -0.02629,26.267675 -0.200035,58.095908 -0.173773,31.828227 -0.529249,56.446817 -0.789934,54.707967 z m 74.150218,-3.22789 -1.525528,-2.0162 1.807992,1.75853 c 0.994396,0.96719 1.680881,1.87447 1.525529,2.01619 -0.155353,0.14172 -0.968949,-0.64961 -1.807993,-1.75852 z m -40.511673,-0.73865 c -0.439663,-0.54202 -0.676999,-1.11073 -0.52742,-1.26377 0.149584,-0.15303 0.619078,0.29044 1.04333,0.98551 0.917469,1.50314 0.611491,1.66818 -0.51591,0.27826 z m -2.097688,-3.4259 c -1.530483,-1.73034 -1.28421,-2.32867 0.326517,-0.79331 0.756739,0.72135 1.228959,1.46187 1.049368,1.64564 -0.179585,0.18373 -0.798738,-0.19982 -1.375885,-0.85233 z m 38.289287,-1.25865 c -0.731934,-1.33249 -2.062214,-3.12572 -2.956163,-3.98502 -0.893954,-0.85927 -1.625371,-1.92332 -1.625371,-2.36455 0,-0.44125 -0.579799,-1.48164 -1.288441,-2.31199 -1.479785,-1.73397 -7.558829,-11.29052 -7.558829,-11.88285 0,-0.21706 0.995317,0.93951 2.211819,2.57012 1.216497,1.63063 2.211813,3.224 2.211813,3.54082 0,0.31685 1.137509,2.12502 2.527793,4.01819 1.390287,1.89316 2.527795,3.76853 2.527795,4.16752 0,0.39898 0.605636,1.2797 1.345864,1.95716 1.534438,1.40433 4.559403,6.07388 4.183703,6.45829 -0.137055,0.14024 -0.848054,-0.83524 -1.579983,-2.16769 z m -40.468494,-3.4028 c -1.131759,-1.85422 -0.93091,-2.44772 0.246367,-0.728 0.556809,0.81338 0.901508,1.59228 0.766011,1.73092 -0.135504,0.13865 -0.591072,-0.31267 -1.012378,-1.00292 z m -2.309285,-4.46408 c -0.61282,-0.69285 -0.965303,-1.64027 -0.783287,-2.10538 0.220307,-0.56297 0.347613,-0.47816 0.380822,0.25375 0.02746,0.60467 0.545181,1.38301 1.150535,1.72962 0.605361,0.34662 0.93539,0.7993 0.733405,1.00597 -0.20199,0.20667 -0.868654,-0.19112 -1.481475,-0.88396 z m -2.114347,-4.58813 c -0.42131,-0.69024 -0.764264,-1.62265 -0.76212,-2.072 0.0021,-0.44934 0.433792,0.0264 0.959225,1.05731 1.095079,2.14849 0.950187,2.89437 -0.197105,1.01469 z m -2.078165,-4.24166 c -0.84974,-1.04761 -2.271935,-4.54128 -2.871093,-7.05297 -0.169664,-0.71124 0.346688,0.19119 1.147448,2.00541 0.800756,1.81422 1.851922,3.78525 2.335914,4.38008 0.483997,0.59485 0.737797,1.227 0.564013,1.4048 -0.173791,0.17781 -0.703109,-0.15398 -1.176282,-0.73732 z m 31.937004,-6.11091 c -0.959904,-1.08527 -0.986103,-1.24942 -0.146806,-0.91989 0.561892,0.22062 1.176869,0.81507 1.366626,1.321 0.472133,1.25887 0.156695,1.15514 -1.21982,-0.40111 z m -1.555254,-2.32169 c 0,-0.99512 -6.341485,-8.004076 -9.074768,-10.02991 -1.369458,-1.01502 -2.277882,-1.845484 -2.018704,-1.845484 2.094027,0 12.529217,11.031664 11.465097,12.120454 -0.204394,0.20911 -0.371625,0.0989 -0.371625,-0.24506 z m -35.027047,-1.47794 c -0.607621,-0.686967 -0.970637,-1.779861 -0.806705,-2.428671 0.279767,-1.107222 0.302559,-1.104638 0.371367,0.04227 0.04032,0.672035 0.570516,1.593872 1.178222,2.048541 0.6077,0.45465 0.937729,0.99771 0.733395,1.20677 -0.204335,0.20906 -0.868656,-0.18194 -1.476279,-0.86891 z m -2.240241,-4.87973 c -0.422989,-0.521484 -0.671092,-1.239381 -0.551341,-1.595329 0.119754,-0.355954 0.546448,0.07071 0.948211,0.94814 0.832789,1.818775 0.712524,2.014891 -0.39687,0.647189 z m -2.289493,-4.316143 c -1.19958,-1.379843 -1.198804,-1.381588 0.218029,-0.491053 0.782036,0.49154 1.421883,1.114691 1.421883,1.38477 0,0.779597 -0.351949,0.587794 -1.639912,-0.893717 z m 26.489934,-2.236716 c -0.414874,-1.106177 0.766843,-2.197968 2.323734,-2.14691 0.521357,0.01704 0.278355,0.305479 -0.540016,0.640852 -0.952611,0.390387 -1.35762,0.957195 -1.125737,1.575479 0.199204,0.531139 0.219998,0.965714 0.04621,0.965714 -0.173783,0 -0.490677,-0.465811 -0.704196,-1.035135 z m -29.017726,-1.06627 -1.203853,-1.454821 1.421883,1.23174 c 1.336218,1.15753 1.709571,1.677897 1.203852,1.677897 -0.119916,0 -0.759763,-0.654668 -1.421882,-1.454816 z m -3.528517,-1.975937 c -0.459289,-0.464431 -1.339178,-1.039759 -1.955317,-1.278511 -1.433036,-0.555308 -2.090744,-2.286083 -1.210837,-3.186382 0.48603,-0.497297 0.579825,-0.302347 0.328182,0.682197 -0.247438,0.968132 -0.0021,1.50979 0.825293,1.819666 1.58833,0.595099 4.362022,2.80744 3.519784,2.80744 -0.369618,0 -1.047816,-0.379986 -1.507105,-0.84441 z m 38.029714,-0.101263 c 0.86893,-0.509644 2.75064,-1.537572 4.181583,-2.284304 2.984013,-1.557186 9.375601,-8.55423 11.430571,-12.51335 0.766327,-1.476419 1.406173,-2.337323 1.421879,-1.913123 0.101664,2.745736 -8.48853,12.853467 -12.610395,14.838142 -1.216502,0.585741 -2.43923,1.459494 -2.717181,1.94165 -0.277951,0.482163 -1.131083,0.872372 -1.895844,0.867123 -1.346179,-0.0093 -1.340143,-0.03902 0.189387,-0.936138 z m -29.069598,-6.16678 c 0.801507,-0.711249 2.053621,-1.253552 2.782472,-1.205126 1.289598,0.0857 1.288232,0.09542 -0.05082,0.362117 -0.756797,0.150736 -1.715839,0.69303 -2.13121,1.205112 -0.415364,0.512089 -1.048281,0.931069 -1.406475,0.931069 -0.358196,0 0.0045,-0.581929 0.80602,-1.293172 z m 5.371555,-2.58635 c 0.629096,-0.711246 1.384114,-1.293174 1.677819,-1.293174 0.293696,0 -0.03479,0.581928 -0.729895,1.293174 -0.695146,0.711245 -1.450158,1.293171 -1.677817,1.293171 -0.227652,0 0.100796,-0.581926 0.729893,-1.293171 z m 4.269989,-2.995843 c 0.958213,-1.019458 2.329719,-2.580968 3.047796,-3.470024 l 1.305603,-1.616466 -1.111226,2.068514 c -0.611183,1.137684 -1.982696,2.699193 -3.0478,3.470024 l -1.936569,1.401502 z m 4.261304,-6.53659 c 0,-0.360036 0.426568,-1.01683 0.947926,-1.459542 0.521357,-0.44271 0.970372,-1.278487 0.997814,-1.857284 0.03129,-0.660368 0.16786,-0.753612 0.366609,-0.250331 0.174198,0.441113 -0.274809,1.571469 -0.997814,2.511899 -0.722992,0.94043 -1.314535,1.415297 -1.314535,1.055258 z m 32.229339,-0.03403 c 0,-0.39307 0.384872,-0.947353 0.855259,-1.231741 0.470394,-0.284387 1.016694,-0.953514 1.214005,-1.486949 0.305091,-0.824821 0.366206,-0.815634 0.408634,0.06142 0.02746,0.567221 -0.518857,1.55795 -1.213998,2.201617 -0.695147,0.643669 -1.2639,0.848705 -1.2639,0.455635 z m -29.202769,-7.2448 c 0.558601,-2.814553 0.502254,-16.450471 -0.07881,-19.074309 -0.38561,-1.741228 -0.336984,-1.70814 0.475075,0.323294 1.198225,2.997465 1.217066,14.914536 0.02915,18.427722 -0.824178,2.437405 -0.848671,2.456023 -0.4254,0.323293 z m 32.210795,0 c 0.606272,-2.095464 0.582368,-15.81654 -0.0327,-18.751015 -0.339262,-1.618658 -0.203328,-1.434543 0.477384,0.646586 1.261053,3.855376 1.261523,15.10293 6.3e-4,17.781136 -0.690668,1.467152 -0.799194,1.545919 -0.445449,0.323293 z M -54.148431,37.554006 c 0,-0.489889 -0.426561,-1.252925 -0.947918,-1.695637 -0.521358,-0.442711 -0.947926,-1.104786 -0.947926,-1.471279 0,-0.366492 0.568754,0.0046 1.2639,0.824693 1.159142,1.367466 1.706114,3.232933 0.947919,3.232933 -0.173782,0 -0.315975,-0.400818 -0.315975,-0.89071 z m 32.302648,-0.202657 c -0.04036,-0.779164 -0.359781,-1.597812 -0.70992,-1.819222 -0.350138,-0.221408 -1.188262,-1.57081 -1.862512,-2.99867 -0.858187,-1.817391 -0.951571,-2.363157 -0.311309,-1.819482 0.503018,0.427147 0.914588,1.13821 0.914588,1.58014 0,0.441932 0.589568,1.570382 1.310142,2.507668 0.720582,0.937285 1.180132,2.213121 1.021228,2.835191 -0.222933,0.872743 -0.305656,0.807517 -0.362217,-0.285625 z m -37.042255,-7.080875 c -1.390285,-1.515773 -3.380917,-3.199673 -4.42363,-3.742 -1.121366,-0.583233 -1.467803,-0.99206 -0.848041,-1.000769 1.062064,-0.01492 8.677977,6.795642 8.1087,7.251239 -0.170084,0.136117 -1.446742,-0.992694 -2.837029,-2.50847 z m 29.069601,-4.927597 c -2.085425,-2.166499 -3.3184,-3.66919 -2.739929,-3.339313 1.630857,0.930018 6.847586,6.093695 6.847586,6.777951 0,0.850182 0.10643,0.939275 -4.107657,-3.438638 z m -40.040709,-1.144579 c -0.820539,-0.699414 -1.210832,-1.271662 -0.867313,-1.271662 0.343517,0 0.964587,0.419174 1.380151,0.931498 0.415563,0.512324 1.516797,1.050656 2.447183,1.196294 1.662067,0.260172 1.66402,0.266112 0.11174,0.340164 -0.868928,0.04145 -2.251222,-0.49688 -3.071761,-1.196294 z m -50.856504,-3.185845 c -1.86564,-1.904738 -3.28597,-2.670891 -6.1615,-3.323602 -2.05532,-0.466535 -3.73696,-1.048262 -3.73696,-1.292727 0,-0.489308 3.93878,0.308791 6.5641,1.33006 1.53783,0.598225 6.07486,4.70756 6.07486,5.502193 0,0.545036 -0.17419,0.404199 -2.7405,-2.215924 z m 84.893707,-0.348871 c -1.087082,-0.635826 -1.259053,-0.931202 -0.551337,-0.946968 0.565692,-0.0126 1.382545,0.413535 1.815231,0.946968 0.962153,1.186181 0.764137,1.186181 -1.263894,0 z m -3.50308,-1.661778 c -0.229863,-0.380544 -1.028687,-0.944028 -1.775152,-1.252188 -1.354061,-0.558986 -1.354135,-0.560387 -0.03331,-0.601276 0.728189,-0.02254 1.838677,0.540943 2.467773,1.252189 0.629096,0.711246 0.832142,1.293174 0.451211,1.293174 -0.380923,0 -0.880666,-0.311355 -1.110529,-0.691899 z m -6.924058,-2.882434 c -1.390286,-0.468816 -1.95904,-0.861629 -1.263893,-0.872919 0.695139,-0.01129 2.117024,0.379162 3.159737,0.867673 2.388376,1.118953 1.414875,1.121647 -1.895844,0.0052 z m -7.2674,-1.800992 c -1.137461,-0.552398 -12.109187,-0.864451 -39.180763,-1.114363 l -37.600896,-0.347113 38.232859,0.02382 c 35.189248,0.02192 38.383745,0.113581 40.128669,1.151364 2.11693,1.259035 0.88342,1.482564 -1.579869,0.286292 z"
       id="path34"
       inkscape:connector-curvature="0" />
    <path
       style="fill:#a5a5a5;stroke-width:0.63922542"
       d="m -129.82417,149.876 c -1.12465,-0.46432 -0.97879,-2.59221 0.20967,-3.05883 0.54978,-0.21587 2.12385,-0.39248 3.49794,-0.39248 2.63628,0 5.2986,-1.37228 6.87752,-3.54499 2.34496,-3.22686 2.47355,-6.3895 2.50101,-61.517314 0.0298,-59.676245 0.17679,-57.493217 -4.13819,-61.432403 -1.22107,-1.114725 -3.55616,-2.379754 -5.18906,-2.811175 -1.63294,-0.431421 -3.32444,-0.89232 -3.75889,-1.024221 -0.43447,-0.1319 -0.78994,-0.830879 -0.78994,-1.553286 0,-1.305175 0.232,-1.313466 36.755412,-1.313466 29.738832,0 37.369214,0.174517 39.9707,0.914183 1.768404,0.5028 5.487487,1.543536 8.264636,2.312747 2.777142,0.769208 5.41927,1.712682 5.871401,2.096608 0.452123,0.383925 2.196388,1.349535 3.876142,2.145801 3.683007,1.745892 9.480803,7.510998 11.068977,11.006575 0.634254,1.395986 1.518546,2.974601 1.965111,3.508036 3.094923,3.697037 3.305233,29.12992 0.256807,31.057591 -0.358075,0.226427 -1.454946,2.132758 -2.437498,4.236295 -1.879501,4.023798 -9.947667,13.200114 -11.606047,13.200114 -0.505375,0 -1.619511,0.563889 -2.475852,1.253093 -0.856332,0.689203 -2.387662,1.443657 -3.402946,1.676572 -3.579706,0.821195 -4.057788,1.045267 -4.057788,1.901871 0,0.475678 1.212588,1.591947 2.694639,2.480614 4.450034,2.6683 9.207776,8.254189 14.373453,16.875325 4.485815,7.4865 5.480674,9.0242 6.787936,10.49176 0.782038,0.87793 1.421885,1.97262 1.421885,2.4326 0,0.45999 0.607147,1.39064 1.349213,2.0681 0.742074,0.67746 2.148368,2.54108 3.125098,4.14138 1.99828,3.27403 3.929986,5.57735 10.534448,12.56098 2.5198914,2.66459 4.5816224,5.06853 4.5816224,5.34211 0,0.2736 -0.6398462,-0.13019 -1.4218842,-0.89727 -0.7820316,-0.76711 -2.8569966,-2.79774 -4.6110183,-4.51252 -1.7540281,-1.71479 -3.7348899,-4.06343 -4.4019029,-5.2192 -0.667019,-1.15578 -1.431789,-2.10141 -1.699486,-2.10141 -0.267706,0 -1.265445,-1.2366 -2.217211,-2.74799 -0.951767,-1.51139 -2.59097,-3.91185 -3.642668,-5.33435 -1.051695,-1.42249 -2.196565,-3.06388 -2.54413,-3.64755 -1.440664,-2.41926 -8.114636,-12.63691 -9.231785,-14.13358 -0.663608,-0.88905 -1.46313,-2.22202 -1.776708,-2.96215 -0.858564,-2.02639 -9.188021,-10.865767 -11.223493,-11.910558 -1.74313,-0.894734 -3.951861,-3.114858 -3.9798,-4.000337 -0.0078,-0.244922 1.332966,-0.651995 2.979314,-0.904599 3.911036,-0.600086 10.601976,-4.350677 13.62496,-7.637457 2.803524,-3.048156 6.455087,-8.525515 7.426553,-11.139842 0.374081,-1.006722 0.98429,-2.022728 1.356022,-2.257789 2.848093,-1.800994 2.590943,-26.082359 -0.313368,-29.58998 -0.475948,-0.574815 -1.257322,-2.063491 -1.736398,-3.308171 -1.378926,-3.582589 -8.183922,-9.922465 -13.411917,-12.495216 -6.099651,-3.001699 -7.760973,-3.514956 -16.163503,-4.993634 -6.509943,-1.145618 -10.322363,-1.262165 -41.287263,-1.262165 -26.958413,0 -34.059953,0.16906 -33.852493,0.805896 0.1444,0.443244 1.23451,0.971299 2.42247,1.173458 1.18796,0.202158 2.87087,0.746798 3.73979,1.21031 2.37214,1.265374 6.31947,5.33595 6.31947,6.516777 0,0.571104 0.41753,1.603168 0.92782,2.293477 1.3978,1.890872 1.3978,109.89251 0,111.78336 -0.51029,0.69032 -0.93804,1.85417 -0.95055,2.58636 -0.0228,1.34306 -1.80675,3.80553 -4.02399,5.55483 -0.66165,0.52201 -2.79446,1.09459 -4.73963,1.2724 -2.58193,0.23601 -3.53662,0.5851 -3.53662,1.29316 0,0.84743 3.51081,0.9699 27.8057,0.9699 24.294875,0 27.805696,-0.12247 27.805696,-0.9699 0,-0.71181 -0.971283,-1.05832 -3.650414,-1.30225 -3.253696,-0.29628 -3.905959,-0.61248 -6.001862,-2.90965 -1.552117,-1.70116 -2.611419,-3.67621 -3.116238,-5.81019 -0.567127,-2.39731 -0.771736,-17.71315 -0.791594,-59.255148 -0.02411,-50.504553 0.07169,-56.060875 0.972845,-56.414691 0.549776,-0.21586 4.542383,-0.392472 8.872438,-0.392472 6.409899,0 8.308518,0.22325 10.217466,1.201422 1.289546,0.660783 3.082239,1.382329 3.983761,1.603434 1.796208,0.440535 8.156057,6.48838 8.156057,7.755928 0,0.43471 0.568754,1.288644 1.263894,1.897632 0.695146,0.608986 1.268185,1.764765 1.273414,2.568398 0.0053,0.803632 0.419317,2.625005 0.920182,4.047495 1.229415,3.491592 1.229415,15.90601 0,19.397601 -0.500865,1.422492 -0.914951,3.195922 -0.920182,3.940954 -0.0053,0.745034 -0.578268,1.881245 -1.273414,2.524915 -0.69514,0.643666 -1.263894,1.646042 -1.263894,2.227498 0,2.316291 -7.531706,9.209599 -11.049542,10.112976 -0.845666,0.217165 -1.868431,0.802743 -2.272818,1.301283 -0.535033,0.659608 -2.348985,0.90644 -6.661374,0.90644 -4.846363,0 -5.926119,0.176716 -5.926119,0.969883 0,0.533434 0.551967,0.969877 1.226598,0.969877 0.674624,0 1.409472,0.302754 1.632987,0.672792 0.223515,0.370031 1.519992,1.392052 2.881061,2.271162 1.361069,0.87911 2.47467,2.040309 2.47467,2.580441 0,0.540132 0.431173,1.151354 0.95816,1.358257 0.946794,0.371735 3.292155,5.112844 12.588133,25.446683 0.569028,1.24467 1.71838,3.5724 2.554121,5.1727 0.835734,1.6003 1.536304,3.40437 1.556818,4.00903 0.02056,0.60468 0.433263,1.33209 0.917213,1.61647 0.483952,0.28439 1.306638,1.53545 1.82819,2.78012 1.675241,3.99791 7.920279,10.82185 11.489892,12.55499 1.227966,0.59621 2.232655,1.32682 2.232655,1.62362 0,0.75124 5.367421,2.65151 9.163243,3.2441 1.737854,0.27132 4.056594,0.97949 5.152748,1.5737 1.672083,0.90643 3.655545,1.05175 12.317394,0.90246 l 10.3243735,-0.17796 0.404787,-1.93978 c 0.3899139,-1.86849 0.4075329,-1.87733 0.4795591,-0.24081 0.1338792,3.04227 -0.8485178,3.27606 -12.7854666,3.04268 -9.421179,-0.18419 -11.20142,-0.38002 -12.244543,-1.34704 -0.708414,-0.65673 -2.220313,-1.13153 -3.603106,-1.13153 -3.060189,0 -7.165703,-1.72536 -12.811195,-5.38393 -3.464244,-2.24502 -9.234243,-9.01223 -10.708184,-12.55885 -0.480326,-1.15578 -1.148467,-2.10141 -1.484746,-2.10141 -0.336286,0 -0.801464,-0.80015 -1.033723,-1.7781 -0.232265,-0.97797 -0.806438,-2.35204 -1.275939,-3.05353 -0.469501,-0.70145 -0.853633,-1.76144 -0.853633,-2.35551 0,-0.59407 -0.42657,-1.2476 -0.947927,-1.45231 -0.521356,-0.2047 -0.957574,-0.745 -0.969364,-1.2007 -0.01182,-0.45568 -0.570896,-1.9924 -1.242455,-3.41487 -0.671558,-1.42248 -1.230656,-2.85441 -1.242453,-3.18203 -0.01182,-0.32762 -0.405607,-1.05503 -0.87514,-1.61646 -0.469542,-0.56145 -1.521431,-2.76658 -2.337534,-4.90031 -0.816104,-2.13374 -1.853818,-4.20257 -2.306037,-4.59739 -0.452214,-0.394835 -0.822207,-1.130244 -0.822207,-1.634248 0,-0.504003 -0.388259,-1.490304 -0.862798,-2.191773 -0.474539,-0.701462 -1.055257,-1.906858 -1.290484,-2.678646 -0.817988,-2.683841 -6.566156,-8.088002 -10.058412,-9.456449 -0.654469,-0.256455 -1.061075,-0.941531 -0.940813,-1.585139 0.17981,-0.962271 1.066751,-1.162008 5.871863,-1.322353 3.606309,-0.120343 6.011403,-0.504808 6.628341,-1.059573 0.532552,-0.478872 1.892501,-1.071668 3.022108,-1.317313 1.129605,-0.245643 2.053829,-0.665473 2.053829,-0.932947 0,-0.267475 1.399257,-1.414008 3.109461,-2.54785 2.211583,-1.466261 3.517045,-2.944666 4.52099,-5.119945 0.776331,-1.682124 1.740612,-3.494854 2.142841,-4.028288 0.402229,-0.533433 1.238338,-3.047279 1.858022,-5.586323 1.929347,-7.905193 0.524646,-22.80346 -2.435644,-25.832325 -0.539193,-0.551682 -0.980351,-1.375245 -0.980351,-1.83014 0,-0.454894 -1.573188,-2.30138 -3.495969,-4.103297 -2.601493,-2.43796 -4.177971,-3.39059 -6.161491,-3.723233 -1.466037,-0.24586 -3.124185,-0.860778 -3.684779,-1.366486 -0.793045,-0.715401 -2.826724,-0.879157 -9.163242,-0.73784 l -8.143984,0.181627 -0.190032,54.313286 c -0.217436,62.137945 -0.20491,62.356835 3.796542,66.330055 2.229009,2.21328 2.921734,2.53142 5.512151,2.53142 1.667062,0 3.499218,0.42417 4.189445,0.96988 1.214292,0.96008 1.214292,0.97969 0,1.93978 -1.049213,0.82955 -5.163591,0.96249 -28.437646,0.91881 -14.96602,-0.028 -27.56644,-0.19779 -28.00089,-0.37716 z"
       id="path32"
       inkscape:connector-curvature="0" />
    <path
       style="fill:#5c8cc3;stroke-width:0.63922542"
       d="m 11.097367,80.957792 0.160805,-69.99301 h 12.322981 12.322981 l 0.160805,69.99301 c 0.08845,38.496158 -0.05372,69.993018 -0.315976,69.993038 -0.262226,0 -0.476779,-31.35136 -0.476779,-69.669723 V 11.611368 H 23.581153 11.890114 v 69.669739 c 0,38.318363 -0.214546,69.669723 -0.476778,69.669723 -0.262233,-2e-5 -0.404418,-31.49688 -0.315969,-69.993038 z"
       id="path30"
       inkscape:connector-curvature="0" />
    <path
       style="fill:#606060;stroke-width:0.63922542"
       d="m -129.6621,149.01781 c -0.76206,-1.2616 0.41452,-1.94656 3.35094,-1.95079 1.76673,-0.004 3.64786,-0.46542 4.65594,-1.14565 2.26833,-1.53065 4.31201,-4.26975 4.31201,-5.77929 0,-0.6761 0.41753,-1.79406 0.92782,-2.48438 0.79838,-1.07999 0.93063,-8.85822 0.94793,-55.752771 0.0179,-48.804348 -0.0851,-54.662016 -0.98723,-56.070682 -0.55404,-0.865151 -0.86086,-1.94603 -0.68184,-2.401952 0.21699,-0.552628 0.34212,-0.478157 0.37538,0.223403 0.0275,0.578796 0.47646,1.414575 0.9978,1.857285 0.82913,0.704041 0.94794,7.754635 0.94794,56.253042 0,48.498415 -0.11881,55.549005 -0.94794,56.253055 -0.52134,0.4427 -0.94791,1.36301 -0.94791,2.0451 0,1.68589 -2.39647,4.87884 -4.80487,6.4018 -1.21203,0.76642 -3.1149,1.25189 -4.90693,1.25189 -1.60993,0 -2.92715,0.29096 -2.92715,0.64658 0,0.42116 9.58453,0.6466 27.48973,0.6466 17.905179,0 27.489723,-0.22544 27.489723,-0.6466 0,-0.35562 -1.383533,-0.64658 -3.074516,-0.64658 -3.225359,0 -5.401346,-1.22363 -7.984569,-4.49001 -2.808267,-3.55091 -2.824083,-3.90578 -2.834161,-63.540493 -0.0094,-55.416189 0.0184,-56.730564 1.212753,-57.384568 0.702469,-0.384666 4.66682,-0.610203 9.321222,-0.530299 l 8.098879,0.139037 -7.583374,0.181238 c -4.170852,0.09968 -8.223215,0.333621 -9.005252,0.519868 l -1.421882,0.338631 0.02674,56.079075 c 0.01985,41.586491 0.224431,56.914571 0.791584,59.312011 0.504835,2.13398 1.564121,4.10903 3.116254,5.81019 2.095894,2.29717 2.748158,2.61337 6.001855,2.90965 2.679132,0.24393 3.650414,0.59044 3.650414,1.30225 0,0.84475 -3.561825,0.99162 -27.60635,1.1383 -18.09067,0.11036 -27.74236,-0.0567 -28.00097,-0.48494 z m 104.899245,-0.42677 c -1.042713,-0.59142 -3.317728,-1.2942 -5.055582,-1.56174 -3.783797,-0.58252 -9.163243,-2.48301 -9.163243,-3.23725 0,-0.2968 -1.004689,-1.02741 -2.232655,-1.62362 -3.569613,-1.73314 -9.814651,-8.55708 -11.489892,-12.55499 -0.521552,-1.24467 -1.344238,-2.49573 -1.82819,-2.78012 -0.48395,-0.28438 -0.896695,-1.01179 -0.917213,-1.61647 -0.02056,-0.60466 -0.721084,-2.40873 -1.556818,-4.00903 -1.61561,-3.09363 -2.026453,-3.96904 -6.372565,-13.57833 -1.527997,-3.3784 -3.346536,-7.21858 -4.041199,-8.533725 -0.694654,-1.315124 -1.263016,-2.59097 -1.263016,-2.835191 0,-1.028253 2.395057,2.867711 3.411652,5.549646 0.606604,1.60029 1.594125,3.78253 2.194483,4.84939 0.600365,1.06687 1.763046,3.68555 2.58374,5.81929 0.8207,2.13373 1.841806,4.31596 2.269126,4.8494 0.427321,0.53343 1.424718,2.57018 2.216439,4.5261 0.791719,1.95592 1.784041,3.99268 2.205172,4.52611 0.421122,0.53343 1.258152,1.98826 1.860075,3.23293 1.277438,2.64151 2.02754,3.57117 6.912743,8.56728 1.999428,2.04483 3.942527,3.71787 4.318001,3.71787 0.375471,0 1.20206,0.48092 1.83687,1.06874 1.428632,1.32283 7.197114,3.40782 9.507057,3.43626 0.94295,0.0116 3.1574,0.60303 4.920991,1.31428 2.701207,1.08938 4.696666,1.29318 12.662349,1.29318 h 9.4558196 v -1.57729 c 0,-1.09538 -1.496308,-3.14326 -4.897591,-6.7029 -2.6936805,-2.81909 -5.6638966,-6.11006 -6.6004876,-7.31328 -4.516351,-5.80206 -8.724247,-11.86809 -8.724247,-12.5767 0,-0.43334 -0.396374,-0.94351 -0.880821,-1.13372 -0.484461,-0.1902 -1.530181,-1.67616 -2.323836,-3.3021 -0.79366,-1.62596 -1.672186,-2.95628 -1.952299,-2.95628 -0.280106,0 -1.234733,-1.46475 -2.121382,-3.25502 -0.886649,-1.79026 -2.171143,-3.82702 -2.854412,-4.52611 -0.683275,-0.69909 -1.242313,-1.67264 -1.242313,-2.16341 0,-1.19403 -10.525282,-12.039412 -11.684069,-12.039412 -1.247255,0 -4.901726,-3.746155 -4.424759,-4.53577 0.211599,-0.350307 1.292169,-0.597297 2.40126,-0.54887 1.486605,0.06492 1.642878,0.161691 0.594651,0.368265 -0.782037,0.154122 -1.41556,0.478194 -1.407831,0.720182 0.02813,0.880944 2.241438,3.10269 3.9798,3.994977 2.035472,1.044791 10.364929,9.884168 11.223493,11.910558 0.313578,0.74013 1.1131,2.0731 1.776708,2.96215 1.117149,1.49667 7.791121,11.71432 9.231785,14.13358 0.347565,0.58367 1.492435,2.22506 2.54413,3.64755 1.051698,1.4225 2.690901,3.82296 3.642668,5.33435 0.951766,1.51139 1.949505,2.74799 2.217211,2.74799 0.267697,0 1.032467,0.94563 1.699486,2.10141 0.667013,1.15577 2.6478748,3.50441 4.4019029,5.2192 1.7540217,1.71478 3.8392194,3.75153 4.6337731,4.52612 1.0020909,0.97689 1.3892729,2.00253 1.2639011,3.34805 l -0.1807466,1.93978 -10.4271375,0.16597 c -8.751238,0.13933 -10.731847,-0.007 -12.322982,-0.90928 z m -45.24789,-55.095255 c -0.385698,-1.132042 -1.240109,-2.353311 -1.898692,-2.713937 -0.658583,-0.360632 -1.197425,-1.07825 -1.197425,-1.594709 0,-0.516465 -1.113601,-1.65829 -2.47467,-2.5374 -1.361069,-0.87911 -2.657546,-1.901131 -2.881061,-2.271162 -0.223515,-0.370038 -0.958363,-0.672792 -1.632987,-0.672792 -0.674631,0 -1.226598,-0.436443 -1.226598,-0.969877 0,-0.801597 1.014273,-0.947301 5.845511,-0.839759 l 5.845518,0.130124 -4.843268,0.219366 -4.843266,0.219366 1.554265,1.590277 c 0.854847,0.874646 1.799236,1.590264 2.098643,1.590264 0.657264,0 5.222237,5.537824 6.308378,7.652775 0.426564,0.830602 0.611625,1.677936 0.411246,1.882963 -0.20038,0.205019 -0.679896,-0.553449 -1.065594,-1.685499 z m 25.973483,-7.680186 c 0.868929,-0.16523 1.722054,-0.513524 1.895845,-0.773987 0.173783,-0.260461 1.880044,-1.229225 3.791686,-2.152813 1.911637,-0.923586 3.959066,-2.208706 4.549843,-2.855831 0.590771,-0.647118 1.388789,-1.467545 1.773373,-1.82317 1.669392,-1.543664 6.840079,-9.496276 7.23981,-11.134948 0.241063,-0.988231 0.816772,-2.233229 1.279365,-2.766663 0.462584,-0.533435 0.970458,-1.697291 1.128597,-2.586348 0.247145,-1.389436 0.299619,-1.327814 0.373592,0.438755 0.04735,1.130374 -0.339396,2.49054 -0.859409,3.022593 -0.520007,0.532053 -1.234853,1.746145 -1.588545,2.697982 -0.938322,2.525139 -4.628011,8.037634 -7.389468,11.04005 -2.734411,2.973028 -10.281025,7.414513 -12.374428,7.282864 -1.263657,-0.07947 -1.246134,-0.117333 0.179739,-0.388484 z m -24.697423,-4.956014 c 0.404387,-0.49854 1.427152,-1.084118 2.272818,-1.301283 3.517836,-0.903377 11.049542,-7.796685 11.049542,-10.112976 0,-0.581456 0.568754,-1.583832 1.263894,-2.227498 0.695146,-0.64367 1.2639,-0.869875 1.2639,-0.502678 0,0.367196 -0.426568,1.029847 -0.947925,1.472557 -0.521357,0.442711 -0.947919,1.072048 -0.947919,1.398526 0,0.918039 -2.666809,4.560941 -4.404878,6.017138 -0.858615,0.71936 -1.98822,1.818319 -2.510249,2.442119 -0.522026,0.623807 -1.245623,1.134191 -1.607989,1.134191 -0.362365,0 -1.720014,0.581929 -3.016997,1.293172 -2.78041,1.524731 -3.42043,1.627252 -2.414197,0.386732 z M -52.81033,64.631479 c -0.03034,-0.711244 0.378648,-2.457028 0.908874,-3.87952 0.974106,-2.613328 0.856387,-1.24914 -0.251065,2.909642 -0.342182,1.284987 -0.626485,1.704159 -0.657809,0.969878 z m 31.207212,-13.317307 c 0,-4.630818 0.184937,-7.747825 0.410972,-6.926687 0.547765,1.989951 0.561918,12.838152 0.01859,14.238947 -0.236254,0.609073 -0.42955,-2.681444 -0.42955,-7.31226 z m -29.151779,-0.584307 c 0,-3.734038 0.104451,-5.261599 0.232105,-3.394579 0.127656,1.867018 0.127656,4.922142 0,6.78916 -0.127654,1.867019 -0.232105,0.339458 -0.232105,-3.394581 z m -1.3397,-9.645767 c -1.116982,-3.703333 -0.926721,-5.478102 0.226284,-2.110871 0.525749,1.535358 0.867641,3.227683 0.759772,3.760721 -0.107867,0.53304 -0.551591,-0.209394 -0.986056,-1.64985 z m 29.63824,0.03941 c -0.11812,-1.90128 -3.647097,-9.669202 -5.182536,-11.407708 -4.496296,-5.090953 -6.803506,-7.01585 -10.078893,-8.408773 -1.56407,-0.665152 -3.292717,-1.591222 -3.841442,-2.057932 -0.548732,-0.466709 -1.378161,-0.848562 -1.843189,-0.848562 -0.465023,0 -0.664953,-0.184723 -0.444296,-0.410495 0.220663,-0.225773 2.506576,0.65389 5.079821,1.954803 5.527592,2.794507 11.823145,8.63491 13.732499,12.739679 0.729275,1.567808 1.746883,3.656704 2.261345,4.64199 0.514467,0.985284 0.817495,2.585587 0.67339,3.556227 -0.2313,1.557941 -0.273109,1.586163 -0.356699,0.240771 z m -31.850058,-6.53432 c -0.608249,-0.606292 -1.10591,-1.425538 -1.10591,-1.820543 0,-1.397581 -6.491317,-7.253214 -8.773295,-7.914145 -1.25719,-0.364118 -2.996732,-1.082017 -3.865659,-1.59533 -1.489355,-0.879825 -1.502841,-0.934608 -0.235365,-0.956208 0.739474,-0.0126 1.670074,0.378469 2.068,0.869045 0.397925,0.490577 1.499158,1.052328 2.447183,1.248337 2.258781,0.467014 6.543746,4.27182 8.993443,7.985661 2.088911,3.166884 2.261901,3.967726 0.471603,2.183183 z M -119.60108,20.27582 c -2.23902,-2.409634 -4.90529,-3.91955 -7.80139,-4.417919 -1.18796,-0.204427 -2.27807,-0.734339 -2.42247,-1.177583 -0.39427,-1.210207 67.363716,-1.080054 73.148722,0.140509 l 4.107664,0.866664 -2.901279,0.06335 c -1.595689,0.03484 -5.150397,-0.238471 -7.899344,-0.607358 -3.002024,-0.40285 -16.102653,-0.596517 -32.803773,-0.48494 l -27.80572,0.185764 3.46477,3.351905 c 1.90562,1.843548 3.30676,3.513556 3.11366,3.711129 -0.19309,0.197573 -1.18347,-0.53661 -2.20084,-1.631518 z m 72.200404,-2.945795 c -0.227874,-0.233154 -1.483864,-0.63614 -2.791099,-0.895523 -2.131026,-0.422841 -2.180753,-0.474208 -0.480944,-0.496772 2.235206,-0.02967 7.100258,1.688657 5.002928,1.767021 -0.724114,0.02705 -1.50301,-0.141571 -1.730885,-0.374726 z"
       id="path28"
       inkscape:connector-curvature="0" />
    <path
       style="fill:#175bab;stroke-width:0.63922542"
       d="m 11.258172,151.10255 c 0.414496,-0.31158 0.631942,-24.39216 0.631942,-69.983107 V 11.611368 h 11.691039 11.691031 v 69.508075 c 0,45.590947 0.217447,69.671527 0.63195,69.983107 0.347574,0.26127 -5.197772,0.47504 -12.322981,0.47504 -7.125216,0 -12.670555,-0.21377 -12.322981,-0.47504 z"
       id="path26"
       inkscape:connector-curvature="0" />
    <path
       style="fill:#323232;stroke-width:0.63922542"
       d="m -129.35026,148.52612 c -4e-5,-0.26674 12.37031,-0.48496 27.48965,-0.48496 15.11936,0 27.489754,0.21822 27.489788,0.48496 3.5e-5,0.2667 -12.370308,0.48493 -27.489658,0.48493 -15.11934,0 -27.48976,-0.21823 -27.48978,-0.48493 z m 104.903381,-0.80825 c -3.504337,-1.50452 -1.705435,-1.6769 3.373773,-0.3233 5.056991,1.3477 18.1124516,1.35864 18.1124516,0.015 0,-0.52511 -1.8005118,-2.78008 -4.0011381,-5.01105 -4.0701355,-4.12626 -9.9017115,-11.13104 -9.9017115,-11.89371 0,-0.23096 -0.741107,-1.12267 -1.646907,-1.98159 -0.905791,-0.85891 -2.349163,-2.91301 -3.207477,-4.56468 -0.85832,-1.65167 -1.944745,-3.31 -2.414286,-3.68519 -0.469534,-0.37518 -1.472082,-1.91875 -2.227881,-3.43014 -0.755795,-1.5114 -1.609189,-2.748 -1.896428,-2.748 -0.287237,0 -1.262174,-1.60029 -2.166521,-3.55622 -0.904357,-1.95592 -1.934835,-3.55623 -2.289957,-3.55623 -0.355127,0 -1.080065,-1.0637 -1.610969,-2.36379 -1.105964,-2.70825 -10.163937,-12.156451 -12.328159,-12.859257 -2.089877,-0.678665 -5.160285,-4.023859 -4.734752,-5.158478 0.255418,-0.681022 1.227215,-0.926081 3.380072,-0.852352 2.551645,0.08738 2.67758,0.144832 0.80977,0.369385 -1.216503,0.146263 -2.458709,0.512329 -2.760463,0.813509 -0.662138,0.660844 3.051366,4.532906 4.347294,4.532906 1.158787,0 11.684069,10.845377 11.684069,12.039407 0,0.49078 0.559038,1.46432 1.242313,2.16341 0.683269,0.6991 1.967763,2.73585 2.854412,4.5261 0.886649,1.79027 1.841276,3.25502 2.121382,3.25502 0.280113,0 1.158639,1.33033 1.952299,2.95629 0.793655,1.62595 1.839375,3.11191 2.323836,3.3021 0.484447,0.19022 0.880821,0.70037 0.880821,1.13372 0,0.70862 4.207896,6.77465 8.724247,12.5767 0.936591,1.20323 3.9068071,4.4942 6.6004876,7.31329 3.401283,3.55963 4.897591,5.6075 4.897591,6.70291 v 1.57727 l -9.6372036,-0.0362 c -7.966683,-0.0298 -10.130145,-0.24775 -12.480965,-1.25703 z m -97.070681,-1.24231 c 1.00604,-0.6786 2.48878,-2.05875 3.29499,-3.06703 0.80622,-1.00827 1.47609,-1.47923 1.48859,-1.04655 0.0341,1.17849 -4.2816,5.35654 -5.52789,5.35162 -0.76762,-0.005 -0.54996,-0.36505 0.74431,-1.23804 z m 36.607813,-1.51565 c -1.4544,-1.61438 -2.806249,-3.96029 -3.26025,-5.65762 -0.592147,-2.21375 -0.733501,-16.43386 -0.597594,-60.11378 0.176258,-56.648178 0.190515,-57.216025 1.441907,-57.40839 1.155229,-0.177581 1.168815,-0.133882 0.157977,0.508243 -1.039731,0.660497 -1.105324,4.095364 -1.096296,57.408388 0.0072,43.127079 0.196442,57.331699 0.789931,59.319409 0.871207,2.91792 2.415914,5.1022 5.131205,7.25577 1.127976,0.89463 1.459855,1.44594 0.870424,1.44594 -0.523972,0 -2.070748,-1.24107 -3.437304,-2.75796 z m 50.213877,0.20407 c -1.639861,-0.59832 -3.510707,-1.57779 -4.157416,-2.17661 -0.646709,-0.59884 -1.48304,-1.08878 -1.858511,-1.08878 -0.375474,0 -2.318573,-1.67304 -4.318001,-3.71787 -4.885203,-4.99611 -5.635305,-5.92577 -6.912743,-8.56728 -0.601923,-1.24467 -1.438953,-2.6995 -1.860075,-3.23293 -0.421131,-0.53343 -1.413453,-2.57019 -2.205172,-4.52611 -0.791721,-1.95592 -1.790636,-3.99267 -2.219823,-4.5261 -0.429187,-0.53344 -1.250881,-2.21201 -1.825987,-3.73017 -1.237377,-3.26645 -5.915382,-13.632489 -6.778629,-15.020854 -0.331672,-0.53343 -1.175284,-2.247481 -1.874687,-3.808982 -1.332147,-2.974202 -6.021604,-9.122748 -6.957861,-9.122748 -0.299407,0 -1.255317,-0.727408 -2.124246,-1.616466 l -1.579871,-1.616466 4.552898,-0.0055 c 3.550666,-0.0049 5.248452,-0.355997 7.712635,-1.596247 1.737857,-0.874687 3.452007,-1.599435 3.809229,-1.610559 0.357222,-0.01112 1.076602,-0.530603 1.598628,-1.154408 0.522029,-0.623802 1.651634,-1.722759 2.510249,-2.44212 1.522293,-1.275412 3.713484,-4.172739 4.630324,-6.12249 1.416383,-3.012079 2.283965,-4.171615 2.293029,-3.064656 0.0053,0.625986 -0.986002,2.58701 -2.202499,4.357828 -1.216504,1.770498 -2.211819,3.513295 -2.211819,3.872564 0,0.359271 -0.377125,0.653222 -0.838045,0.653222 -0.460932,0 -1.66794,1.018374 -2.682239,2.263052 -1.014311,1.244678 -2.32313,2.263056 -2.908502,2.263056 -0.585367,0 -1.523628,0.469956 -2.085018,1.044355 -1.178514,1.205812 -4.674011,2.150908 -8.037532,2.173147 -2.301255,0.01518 -4.022083,1.296628 -2.457748,1.83015 1.905096,0.649743 4.988019,4.187214 6.689598,7.675914 1.009824,2.070421 2.204182,3.997076 2.654128,4.281463 0.449946,0.28438 0.818087,1.174402 0.818087,1.977825 0,0.803409 0.417522,2.02556 0.927824,2.71587 0.510298,0.6903 0.936866,1.71919 0.947925,2.28641 0.01108,0.56722 0.55895,1.53027 1.217551,2.1401 0.658599,0.60982 1.346388,1.74604 1.528416,2.52491 0.547691,2.34351 2.007646,6.05776 2.750928,6.99865 0.383804,0.48583 1.346898,2.48364 2.140197,4.43957 0.793291,1.95594 1.801767,3.99362 2.24106,4.52822 0.439292,0.53459 1.478064,2.47226 2.308378,4.30593 1.665988,3.67915 8.533739,11.07921 11.939942,12.86541 1.165704,0.61128 2.261647,1.31699 2.435431,1.56825 0.173783,0.25125 2.02223,0.96959 4.107662,1.5963 2.085427,0.62673 4.07606,1.23047 4.423633,1.34168 0.347573,0.11119 -0.221181,0.18625 -1.263895,0.16679 -1.042712,-0.0195 -3.237558,-0.52492 -4.877433,-1.12324 z m -82.01121,-4.96434 c -0.003,-0.7566 0.42239,-1.73786 0.94373,-2.18056 1.40085,-1.18953 1.44061,-111.282809 0.0407,-112.471604 -0.49901,-0.42374 -1.09163,-1.629155 -1.31693,-2.6787 -0.24492,-1.140924 -1.5222,-2.859799 -3.17643,-4.274587 -5.17005,-4.42173 -6.80022,-4.196506 27.680342,-3.824272 17.115945,0.184776 33.252733,0.571758 35.859517,0.859962 2.680138,0.296314 -10.157183,0.41079 -29.543555,0.263452 -23.334814,-0.177347 -34.283164,-0.04719 -34.283164,0.407557 0,0.367462 0.42655,0.835592 0.94791,1.04029 0.52136,0.204698 0.94793,0.786626 0.94793,1.293173 0,0.506548 0.42656,1.088476 0.94792,1.293174 0.52136,0.204698 0.94792,0.918718 0.94792,1.586711 0,0.667993 0.56876,1.8855 1.26389,2.705573 1.24303,1.466411 1.26383,2.415975 1.25975,57.483506 -0.005,54.783025 -0.0313,56.034365 -1.25975,57.932225 -1.10924,1.71369 -1.25604,1.77942 -1.25973,0.5641 z m 72.669818,-55.023245 c 0.521357,-0.201882 1.175331,-0.760837 1.453283,-1.242121 0.277951,-0.481289 1.167351,-0.875071 1.976457,-0.875071 0.809089,0 1.8251,-0.43645 2.257791,-0.969884 0.432688,-0.533434 1.156557,-0.969876 1.608601,-0.969876 1.223768,0 6.010596,-5.185193 7.013708,-7.597396 0.480628,-1.155774 1.129061,-2.101407 1.440961,-2.101407 0.311899,0 1.183883,-1.382079 1.937742,-3.071286 0.75385,-1.689209 1.916717,-4.267012 2.58416,-5.728455 0.9994,-2.188314 1.226341,-4.241925 1.286194,-11.638561 0.05298,-6.54852 0.214305,-8.280804 0.59553,-6.395046 1.154617,5.711415 0.16533,17.591928 -1.642151,19.720895 -0.452883,0.533434 -1.020656,1.778432 -1.261719,2.766663 -0.386429,1.584143 -5.444125,9.399512 -7.205949,11.134948 -2.899264,2.855831 -3.911206,3.586256 -6.831043,4.930677 -1.824744,0.840199 -3.31772,1.747553 -3.31772,2.016354 0,0.268796 -0.639848,0.465744 -1.421886,0.437674 -0.947293,-0.03401 -1.105493,-0.173558 -0.473959,-0.418108 z m -7.883866,-22.161382 c 0.225874,-0.889057 0.637556,-2.634841 0.914849,-3.879521 l 0.504187,-2.263053 0.05028,2.263053 c 0.02767,1.24468 -0.384032,2.990464 -0.914855,3.879521 l -0.965135,1.616466 0.410668,-1.616466 z m 0.827797,-20.690775 c -0.217535,-1.244679 -0.583707,-2.990463 -0.813717,-3.87952 -0.39732,-1.535786 -0.367188,-1.526024 0.603621,0.195591 0.562001,0.99663 0.928172,2.742416 0.813718,3.87952 l -0.208101,2.067463 z m 27.192919,-3.09199 c -0.568371,-1.322197 -1.556393,-3.713334 -2.195602,-5.313637 -1.368163,-3.425289 -8.404801,-10.991975 -10.221979,-10.991975 -0.684766,0 -1.59905,-0.436446 -2.031738,-0.96988 -0.432691,-0.533434 -1.452824,-0.96988 -2.266965,-0.96988 -0.83349,0 -1.775802,-0.565028 -2.156672,-1.293173 -0.776022,-1.483608 -0.238758,-1.680351 1.21414,-0.444611 0.548725,0.466709 2.277372,1.392779 3.841442,2.057932 3.275387,1.392922 5.582597,3.317819 10.078893,8.408773 1.564646,1.77158 5.218789,9.850367 4.972167,10.992743 -0.110157,0.510238 -0.665313,-0.154092 -1.233686,-1.476292 z m -28.984119,-3.48461 c 0,-0.416527 -0.497661,-1.331756 -1.10591,-2.033846 -1.073129,-1.238686 -1.063762,-1.253894 0.315976,-0.513102 1.197608,0.643006 2.088308,3.304267 1.105911,3.304267 -0.173792,0 -0.315977,-0.340793 -0.315977,-0.757319 z m -5.510115,-7.469352 c -1.814061,-1.857499 -4.08907,-3.569621 -5.055583,-3.804716 -0.966502,-0.235095 -2.183851,-0.798284 -2.705207,-1.251531 -0.521357,-0.453246 -1.658864,-0.956471 -2.527792,-1.118277 -1.576876,-0.293635 -1.57664,-0.294359 0.124551,-0.382246 2.556538,-0.132076 10.055639,4.173729 12.407762,7.124241 2.614928,3.280176 1.152798,2.910382 -2.243731,-0.567471 z M -81.79614,21.155643 c 1.99853,-0.128316 5.26886,-0.128316 7.267395,0 1.998536,0.128315 0.36337,0.2333 -3.6337,0.2333 -3.997065,0 -5.632232,-0.104985 -3.633695,-0.2333 z m 32.987675,-3.33894 c -0.330198,-0.321105 -1.169107,-0.745447 -1.864254,-0.942984 -0.69514,-0.197536 -0.410762,-0.245785 0.631951,-0.107219 1.042713,0.138565 2.891159,0.533124 4.107663,0.876797 l 2.211818,0.62486 -2.243416,0.06619 c -1.233881,0.0364 -2.513574,-0.196536 -2.843762,-0.517641 z"
       id="path24"
       inkscape:connector-curvature="0" />
    <path
       style="fill:#010101;stroke-width:0.63922542"
       d="m -123.03901,147.88806 c 2.6613,-0.50848 4.66008,-2.45184 6.80172,-6.61313 l 2.05382,-3.99065 V 81.497573 c 0,-54.85865 -0.0209,-55.811528 -1.26389,-57.277764 -0.69514,-0.820073 -1.2639,-2.03758 -1.2639,-2.705573 0,-0.667993 -0.42657,-1.382013 -0.94791,-1.586711 -0.52136,-0.204698 -0.94793,-0.786626 -0.94793,-1.293174 0,-0.506547 -0.42656,-1.088475 -0.94792,-1.293173 -3.17035,-1.244758 1.48643,-1.522487 24.803946,-1.479303 29.611303,0.05484 44.684637,0.637291 45.79113,1.769417 0.413502,0.42308 1.822456,0.769237 3.130993,0.769237 1.7324,0 2.563051,0.351546 3.055583,1.293174 0.38087,0.728145 1.323182,1.293173 2.156672,1.293173 0.814141,0 1.834274,0.436446 2.266965,0.96988 0.432688,0.533434 1.346972,0.96988 2.031738,0.96988 1.819917,0 8.85471,7.567347 10.218406,10.991975 0.637249,1.600303 1.696358,4.105366 2.353589,5.566807 1.759076,3.911565 1.746754,19.270082 -0.0186,23.135481 -0.667442,1.461443 -1.830311,4.039246 -2.584162,5.728455 -0.753858,1.689207 -1.625835,3.071286 -1.937742,3.071286 -0.311899,0 -0.960334,0.945633 -1.44096,2.101407 -1.003111,2.412203 -5.78994,7.597396 -7.013709,7.597396 -0.452044,0 -1.175914,0.436442 -1.6086,0.969876 -0.432691,0.533434 -1.448695,0.969884 -2.257792,0.969884 -0.809105,0 -1.738169,0.488291 -2.064599,1.0851 -0.423949,0.775106 -1.711042,1.167808 -4.505412,1.374609 -2.489233,0.184225 -4.031173,0.607519 -4.239851,1.163913 -0.397521,1.059928 2.762465,4.426632 4.765297,5.077034 2.164219,0.702805 11.222195,10.151011 12.328158,12.859271 0.530911,1.30009 1.255849,2.36379 1.61097,2.36379 0.35512,0 1.385599,1.60029 2.289955,3.55622 0.904348,1.95592 1.879286,3.55623 2.166522,3.55623 0.287239,0 1.140631,1.23659 1.896429,2.74799 0.755798,1.5114 1.758346,3.05495 2.227887,3.43013 0.469534,0.3752 1.555958,2.03352 2.414279,3.68521 0.858314,1.65166 2.301685,3.70576 3.207484,4.56466 0.905792,0.85892 1.646899,1.75064 1.646899,1.98161 0,0.76267 5.831577,7.76744 9.9017189,11.89373 5.8072032,5.88732 5.6663545,6.08845 -4.0562029,5.79192 -4.431532,-0.13518 -10.474532,-0.72828 -13.428888,-1.31801 -6.00395,-1.19849 -12.158404,-2.99541 -12.638956,-3.69016 -0.173784,-0.25126 -1.26973,-0.95698 -2.435432,-1.56827 -3.406204,-1.78618 -10.273954,-9.18626 -11.939943,-12.86539 -0.830313,-1.83367 -1.869085,-3.77135 -2.308378,-4.30594 -0.439293,-0.53459 -1.447769,-2.57228 -2.241061,-4.5282 -0.793297,-1.95592 -1.756385,-3.95373 -2.140196,-4.43958 -0.743282,-0.94089 -2.20323,-4.65513 -2.750927,-6.99866 -0.182029,-0.77886 -0.869816,-1.91507 -1.528417,-2.5249 -0.658598,-0.60983 -1.206499,-1.57288 -1.217549,-2.1401 -0.01108,-0.56722 -0.437622,-1.59612 -0.94792,-2.28643 -0.510307,-0.69031 -0.927828,-1.912447 -0.927828,-2.715863 0,-0.803416 -0.368143,-1.693431 -0.818089,-1.977825 -0.449947,-0.28438 -1.644304,-2.211035 -2.654127,-4.281455 -1.701579,-3.4887 -4.784503,-7.026172 -6.689599,-7.675914 -1.564335,-0.533524 0.156494,-1.814926 2.45775,-1.83015 3.363519,-0.02227 6.859017,-0.967334 8.037531,-2.173155 0.561387,-0.574392 1.499651,-1.044347 2.085017,-1.044347 0.58537,0 1.894191,-1.018379 2.908502,-2.263056 1.014318,-1.24468 2.221326,-2.263055 2.682259,-2.263055 0.460921,0 0.838044,-0.29395 0.838044,-0.65322 0,-0.359269 0.995316,-2.102067 2.211819,-3.872886 1.216496,-1.770819 2.221897,-3.877325 2.234213,-4.681122 0.01235,-0.803799 0.428817,-2.188861 0.925545,-3.077919 0.682557,-1.221669 0.903133,-4.222129 0.903133,-12.285148 0,-8.063019 -0.220576,-11.063479 -0.903133,-12.285147 -0.496728,-0.889056 -0.913218,-2.260898 -0.925525,-3.048537 -0.01229,-0.78764 -0.591154,-1.74351 -1.286293,-2.124158 -0.69514,-0.380647 -1.272886,-1.191034 -1.283864,-1.800862 -0.0384,-2.133782 -3.146933,-4.914462 -9.45925,-8.461681 -2.665371,-1.49781 -3.45824,-1.601236 -12.638955,-1.648685 -5.387344,-0.02784 -10.292854,0.158466 -10.901098,0.414021 -1.041544,0.437604 -1.105904,3.808491 -1.105904,57.915979 0,63.955175 -0.181288,61.182335 4.289177,65.608625 1.305074,1.2922 3.187587,2.44474 4.242105,2.59719 1.042727,0.15075 -8.483889,0.27806 -21.170244,0.28293 -12.68635,0.006 -22.35887,-0.12632 -21.4945,-0.29148 z"
       id="path22"
       inkscape:connector-curvature="0" />
  </g>
</svg>
